# xmcd
#
# Track frame offsets:
#	150
#	19650
#	38475
#	66075
#	89100
#	111450
#	134475
#	158325
#	178725
#	201300
#	223575
#	247425
#	265950
#	285450
#
# Disc length: 4083 seconds
#
# Revision: 0
# Processed by: cddbd v1.5.2PL0 Copyright (c) Steve Scherf et al.
# Submitted via: EasyCDDAExtractor 16.0.4.1
#
DISCID=d60ff10e
DTITLE=Various Artist - 再續情牽女人心
DYEAR=1996
DGENRE=
TTITLE0=陳淑樺 - 說，你愛我
TTITLE1=李度 - 愛一個人恨一個人
TTITLE2=林憶蓮 - 傷痕
TTITLE3=張艾嘉 - 愛的代價
TTITLE4=辛曉琪 - 不如這樣吧
TTITLE5=陳淑樺 - 聰明糊塗心
TTITLE6=李度 - 好想好好
TTITLE7=辛曉琪 - 荒唐
TTITLE8=陳淑樺 - 愛得比較深
TTITLE9=張艾嘉 - 因為寂寞
TTITLE10=林憶蓮 - 聽說愛情回來過
TTITLE11=辛曉琪 - 深情難了
TTITLE12=林憶蓮 - 為你我受冷風吹
TTITLE13=陳淑樺 - 無言的表示
EXTD=
EXTT0=
EXTT1=
EXTT2=
EXTT3=
EXTT4=
EXTT5=
EXTT6=
EXTT7=
EXTT8=
EXTT9=
EXTT10=
EXTT11=
EXTT12=
EXTT13=
PLAYORDER=
